<?xml version="1.0" encoding="utf-8"?>
<!-- Generator: Adobe Illustrator 25.2.1, SVG Export Plug-In . SVG Version: 6.00 Build 0)  -->
<svg version="1.1" id="Lager_1" xmlns="http://www.w3.org/2000/svg" xmlns:xlink="http://www.w3.org/1999/xlink" x="0px"
	y="0px" viewBox="0 0 640 640" style="enable-background:new 0 0 640 640;" xml:space="preserve">
	<style type="text/css">
		.st0 {
			fill: #d9ed91;
		}

		.st1 {
			enable-background: new;
		}

		.st2 {
			fill: #52b79a;
		}
	</style>
	<circle class="st0" cx="320" cy="320" r="320" />
	<g class="st1">
		<path class="st2"
			d="M205.4,382.1V254.9h43.8c9.9,0,17.4,0.6,22.6,1.8c7.3,1.7,13.5,4.7,18.7,9.1c6.7,5.7,11.7,12.9,15.1,21.7
		c3.3,8.8,5,18.9,5,30.2c0,9.7-1.1,18.2-3.4,25.7c-2.3,7.5-5.1,13.6-8.7,18.5c-3.5,4.9-7.4,8.7-11.6,11.5c-4.2,2.8-9.3,4.9-15.2,6.4
		c-5.9,1.4-12.7,2.2-20.4,2.2H205.4z M222.2,367.1h27.2c8.4,0,15-0.8,19.7-2.3s8.6-3.8,11.4-6.6c4-4,7.1-9.4,9.3-16.1
		c2.2-6.7,3.3-14.9,3.3-24.5c0-13.3-2.2-23.5-6.5-30.7c-4.4-7.1-9.7-11.9-15.9-14.4c-4.5-1.7-11.8-2.6-21.8-2.6h-26.7V367.1z" />
		<path class="st2" d="M417.2,254.9H434v73.5c0,12.8-1.4,22.9-4.3,30.5c-2.9,7.5-8.1,13.6-15.7,18.3s-17.5,7.1-29.7,7.1
		c-11.9,0-21.7-2.1-29.2-6.2c-7.6-4.1-13-10-16.2-17.8c-3.2-7.8-4.9-18.4-4.9-31.9v-73.5h16.8v73.4c0,11,1,19.2,3.1,24.4
		c2.1,5.2,5.6,9.3,10.6,12.1c5,2.8,11.1,4.3,18.3,4.3c12.4,0,21.2-2.8,26.5-8.4c5.3-5.6,7.9-16.4,7.9-32.4V254.9z" />
	</g>
</svg>