<?xml version="1.0" encoding="utf-8"?>
<!-- Generator: Adobe Illustrator 25.2.1, SVG Export Plug-In . SVG Version: 6.00 Build 0)  -->
<svg version="1.1" id="Lager_1" xmlns="http://www.w3.org/2000/svg" xmlns:xlink="http://www.w3.org/1999/xlink" x="0px"
	y="0px" viewBox="0 0 640 640" style="enable-background:new 0 0 640 640;" xml:space="preserve">
	<style type="text/css">
		.st0 {
			fill: #1d5e90;
		}

		.st1 {
			enable-background: new;
		}

		.st2 {
			fill: #d9ed91;
		}
	</style>
	<rect class="st0" width="640" height="640" />
	<g class="st1">
		<path class="st2" d="M54.6,380.7V266.3h77.2v13.5h-62v35.4h53.7v13.5H69.8v52H54.6z" />
		<path class="st2" d="M161.7,380.7V266.3h15.1v100.9h56.3v13.5H161.7z" />
		<path class="st2" d="M257.5,325c0-19,5.1-33.8,15.3-44.6c10.2-10.7,23.4-16.1,39.5-16.1c10.6,0,20.1,2.5,28.6,7.6
		c8.5,5,14.9,12.1,19.4,21.1c4.4,9,6.7,19.3,6.7,30.7c0,11.6-2.3,22-7,31.1c-4.7,9.2-11.3,16.1-19.9,20.8
		c-8.6,4.7-17.8,7.1-27.8,7.1c-10.8,0-20.4-2.6-28.9-7.8c-8.5-5.2-14.9-12.3-19.3-21.3C259.6,344.5,257.5,335,257.5,325z
		 M273.1,325.2c0,13.8,3.7,24.6,11.1,32.6c7.4,7.9,16.7,11.9,27.9,11.9c11.4,0,20.8-4,28.1-12c7.4-8,11-19.4,11-34.1
		c0-9.3-1.6-17.4-4.7-24.4c-3.1-6.9-7.8-12.3-13.8-16.2c-6.1-3.8-12.9-5.7-20.4-5.7c-10.7,0-19.9,3.7-27.7,11
		C276.9,295.7,273.1,308,273.1,325.2z" />
		<path class="st2" d="M384.7,380.7l43.9-114.4h16.3l46.8,114.4h-17.2L461.1,346h-47.8l-12.6,34.6H384.7z M417.7,333.7h38.8
		L444.5,302c-3.6-9.6-6.3-17.5-8.1-23.7c-1.5,7.3-3.5,14.6-6.2,21.8L417.7,333.7z" />
		<path class="st2" d="M531.9,380.7V279.8h-37.7v-13.5h90.7v13.5h-37.8v100.9H531.9z" />
	</g>
</svg>