<?xml version="1.0" encoding="utf-8"?>
<!-- Generator: Adobe Illustrator 25.2.1, SVG Export Plug-In . SVG Version: 6.00 Build 0)  -->
<svg version="1.1" id="Lager_1" xmlns="http://www.w3.org/2000/svg" xmlns:xlink="http://www.w3.org/1999/xlink" x="0px"
	y="0px" viewBox="0 0 640 480" style="enable-background:new 0 0 640 480;" xml:space="preserve">
	<style type="text/css">
		.st0 {
			fill: #52b79a;
		}

		.st1 {
			enable-background: new;
		}

		.st2 {
			fill: #1d5e90;
		}
	</style>
	<rect class="st0" width="640" height="480" />
	<g class="st1">
		<path class="st2"
			d="M217.8,276.8v-76.6H228v38l38-38h13.7l-32.1,31l33.5,45.6h-13.4L240.5,238L228,250.2v26.5H217.8z" />
		<path class="st2" d="M288.2,276.8l29.4-76.6h10.9l31.3,76.6h-11.5l-8.9-23.2h-32l-8.4,23.2H288.2z M310.3,245.3h26l-8-21.2
		c-2.4-6.4-4.2-11.7-5.4-15.9c-1,4.9-2.4,9.8-4.1,14.6L310.3,245.3z" />
	</g>
	<g class="st1">
		<path class="st2" d="M376,276.8v-76.6h10.4l40.2,60.1v-60.1h9.7v76.6H426l-40.2-60.2v60.2H376z" />
	</g>
</svg>